HIERARCHY
ROOT Hips
{
	OFFSET -0.001795 -0.223333 0.028219
	CHANNELS 6 Xposition Yposition Zposition Zrotation Yrotation Xrotation 
	JOINT LeftUpLeg
	{
		OFFSET 0.069520 -0.091406 -0.006815
		CHANNELS 3 Zrotation Yrotation Xrotation
		JOINT LeftLeg
		{
			OFFSET 0.034277 -0.375199 -0.004496
			CHANNELS 3 Zrotation Yrotation Xrotation
			JOINT LeftFoot
			{
				OFFSET -0.013596 -0.397961 -0.043693
				CHANNELS 3 Zrotation Yrotation Xrotation
				JOINT LeftToe
				{
					OFFSET 0.026358 -0.055791 0.119288
					CHANNELS 3 Zrotation Yrotation Xrotation
					End Site
					{
						OFFSET 0.000000 0.000000 0.000000
					}
				}
			}
		}
	}
	JOINT RightUpLeg
	{
		OFFSET -0.067670 -0.090522 -0.004320
		CHANNELS 3 Zrotation Yrotation Xrotation
		JOINT RightLeg
		{
			OFFSET -0.038290 -0.382569 -0.008850
			CHANNELS 3 Zrotation Yrotation Xrotation
			JOINT RightFoot
			{
				OFFSET 0.015774 -0.398415 -0.042312
				CHANNELS 3 Zrotation Yrotation Xrotation
				JOINT RightToe
				{
					OFFSET -0.025372 -0.048144 0.123348
					CHANNELS 3 Zrotation Yrotation Xrotation
					End Site
					{
						OFFSET 0.000000 0.000000 0.000000
					}
				}
			}
		}
	}
	JOINT Spine
	{
		OFFSET -0.002533 0.108963 -0.026696
		CHANNELS 3 Zrotation Yrotation Xrotation
		JOINT Spine1
		{
			OFFSET 0.005487 0.135180 0.001092
			CHANNELS 3 Zrotation Yrotation Xrotation
			JOINT Spine2
			{
				OFFSET 0.001457 0.052922 0.025425
				CHANNELS 3 Zrotation Yrotation Xrotation
				JOINT Neck
				{
					OFFSET -0.002778 0.213870 -0.042857
					CHANNELS 3 Zrotation Yrotation Xrotation
					JOINT Head
					{
						OFFSET 0.005152 0.064970 0.051349
						CHANNELS 3 Zrotation Yrotation Xrotation
						End Site
						{
							OFFSET 0.000000 0.000000 0.000000
						}
					}
				}
				JOINT LeftShoulder
				{
					OFFSET 0.078845 0.121749 -0.034090
					CHANNELS 3 Zrotation Yrotation Xrotation
					JOINT LeftArm
					{
						OFFSET 0.090977 0.030469 -0.008868
						CHANNELS 3 Zrotation Yrotation Xrotation
						JOINT LeftForeArm
						{
							OFFSET 0.259612 -0.012772 -0.027456
							CHANNELS 3 Zrotation Yrotation Xrotation
							JOINT LeftHand
							{
								OFFSET 0.249234 0.008986 -0.001171
								CHANNELS 3 Zrotation Yrotation Xrotation
								End Site
								{
									OFFSET 0.000000 0.000000 0.000000
								}
							}
						}
					}
				}
				JOINT RightShoulder
				{
					OFFSET -0.081759 0.118833 -0.038615
					CHANNELS 3 Zrotation Yrotation Xrotation
					JOINT RightArm
					{
						OFFSET -0.096012 0.032551 -0.009143
						CHANNELS 3 Zrotation Yrotation Xrotation
						JOINT RightForeArm
						{
							OFFSET -0.253742 -0.013329 -0.021401
							CHANNELS 3 Zrotation Yrotation Xrotation
							JOINT RightHand
							{
								OFFSET -0.255298 0.007772 -0.005559
								CHANNELS 3 Zrotation Yrotation Xrotation
								End Site
								{
									OFFSET 0.000000 0.000000 0.000000
								}
							}
						}
					}
				}
			}
		}
	}
}
MOTION
Frames: 9
Frame Time: 0.050000
0.000000 0.942372 0.000000 -0.251762 -4.634224 7.783207 5.847985 -0.282845 -3.846846 -1.241514 0.227206 -3.624043 1.493697 7.593338 17.114801 0.000000 0.000000 0.000000 -4.085275 0.564039 -5.525823 -4.829667 0.061267 -4.968427 2.103003 -4.069405 18.025801 0.000000 0.000000 0.000000 5.599221 0.279076 -4.947458 -2.998086 1.344747 -3.839127 -3.798035 5.041050 3.292867 4.892308 -2.384582 -9.446436 0.000000 0.000000 0.000000 -16.804964 1.865223 -3.279796 -54.726980 -5.912618 -3.606069 -7.581578 -14.605276 1.414733 0.000000 0.000000 0.000000 14.901392 -8.801954 -5.217346 62.641688 2.675248 -4.307047 8.195687 18.729671 1.919256 0.000000 0.000000 0.000000 
0.000045 0.941984 0.000120 -0.402172 -5.325565 8.563806 5.829936 -0.273728 -3.529890 -1.069654 0.263026 -5.419920 1.803457 8.025353 17.531830 0.000000 0.000000 0.000000 -4.055113 0.656060 -6.712152 -4.733912 0.078430 -4.597477 2.378046 -3.689158 17.909588 0.000000 0.000000 0.000000 6.714024 0.344724 -5.523752 -3.596865 1.588307 -4.065561 -4.648290 5.476309 2.652526 4.365746 -1.920745 -10.006432 0.000000 0.000000 0.000000 -17.463011 2.657662 -3.854703 -53.745650 -6.070252 -3.383875 -8.205403 -14.525117 1.474054 0.000000 0.000000 0.000000 14.749035 -10.107580 -5.826641 63.152129 1.450849 -4.888375 9.099660 19.314540 2.129962 0.000000 0.000000 0.000000 
0.000104 0.941681 0.000091 -0.014321 -5.257688 8.203862 5.391175 -0.284296 -3.744414 -1.038688 0.233456 -4.448871 1.795539 7.977809 17.266717 0.000000 0.000000 0.000000 -4.250198 0.648068 -6.663407 -5.143616 0.151574 -4.004530 2.241086 -3.758025 17.500788 0.000000 0.000000 0.000000 6.474439 0.298186 -5.052256 -3.464294 1.501786 -5.435530 -4.901519 5.170760 3.576067 3.934275 -1.755135 -9.324996 0.000000 0.000000 0.000000 -17.525954 1.799596 -3.344851 -53.653140 -6.091985 -3.465354 -7.601935 -13.726692 1.335490 0.000000 0.000000 0.000000 15.661293 -9.130009 -5.506394 62.327584 1.228687 -5.104302 8.630127 19.919001 2.132716 0.000000 0.000000 0.000000 
0.000033 0.941643 0.000084 0.116016 -5.090734 8.731065 5.726520 -0.298001 -3.979740 -1.827458 0.309401 -5.143317 1.638530 7.821907 17.553291 0.000000 0.000000 0.000000 -4.597576 0.687893 -7.223779 -4.772973 0.130449 -3.981068 2.112725 -3.946427 17.527197 0.000000 0.000000 0.000000 6.568678 0.323861 -5.400667 -3.788398 1.648063 -4.983587 -4.877875 4.501171 2.181464 3.573656 -1.623204 -8.603580 0.000000 0.000000 0.000000 -17.609434 2.336389 -3.559877 -54.070777 -6.934044 -2.983240 -6.403712 -12.758263 1.113124 0.000000 0.000000 0.000000 14.557471 -9.380906 -5.562588 62.856299 0.872349 -5.176592 9.739918 20.094096 2.294420 0.000000 0.000000 0.000000 
-0.000087 0.942049 0.000004 0.307072 -4.716850 8.557121 5.200433 -0.308024 -3.987895 -1.177787 0.256465 -4.959452 1.433739 7.585081 17.587856 0.000000 0.000000 0.000000 -4.626343 0.670761 -7.043517 -5.017375 0.159404 -3.846733 1.930764 -4.205331 17.568252 0.000000 0.000000 0.000000 6.369772 0.321294 -5.394660 -3.633018 1.592134 -4.792420 -5.072915 4.315112 1.964929 3.361529 -1.419419 -9.003027 0.000000 0.000000 0.000000 -17.679224 1.849517 -3.348494 -53.945308 -7.387898 -2.747128 -6.698979 -12.317007 1.102750 0.000000 0.000000 0.000000 14.367415 -9.446606 -5.553431 62.894557 0.780084 -5.198033 9.914514 19.983010 2.308732 0.000000 0.000000 0.000000 
-0.000217 0.942303 -0.000053 0.422417 -4.495352 8.792799 5.162472 -0.315850 -4.031692 -1.268170 0.274931 -5.441367 1.261842 7.414362 17.832461 0.000000 0.000000 0.000000 -4.745377 0.666065 -6.966456 -4.990521 0.115739 -4.377631 1.856063 -4.374301 17.808656 0.000000 0.000000 0.000000 6.262550 0.349217 -5.745357 -3.628009 1.588567 -4.933526 -5.148650 4.184599 1.822408 3.489145 -1.554602 -8.612238 0.000000 0.000000 0.000000 -18.067339 2.028820 -3.511787 -53.734027 -7.649928 -2.592918 -6.248463 -11.823702 1.012329 0.000000 0.000000 0.000000 14.061520 -9.414181 -5.488267 63.220515 0.589994 -5.298111 9.948936 19.930870 2.304767 0.000000 0.000000 0.000000 
-0.000320 0.942458 -0.000194 0.416115 -4.094020 8.756621 5.108089 -0.321277 -4.059575 -1.061801 0.260462 -5.463409 1.055685 7.171069 17.821139 0.000000 0.000000 0.000000 -4.602472 0.654109 -6.830199 -5.155231 0.125843 -4.403750 1.675795 -4.634515 17.886579 0.000000 0.000000 0.000000 6.227724 0.350750 -5.793323 -3.614583 1.587642 -4.926929 -5.102776 3.876196 1.702037 3.681654 -1.642878 -8.968649 0.000000 0.000000 0.000000 -18.413734 1.823382 -3.446341 -53.710983 -7.585621 -2.602571 -6.035049 -11.419577 0.958091 0.000000 0.000000 0.000000 14.129722 -9.267995 -5.444204 63.244530 0.598921 -5.290181 9.641570 19.756419 2.227176 0.000000 0.000000 0.000000 
-0.000345 0.942755 -0.000429 0.352642 -3.738908 8.885941 5.021406 -0.343261 -4.406646 -0.701658 0.228463 -5.231402 0.904042 6.996179 17.798951 0.000000 0.000000 0.000000 -4.478453 0.659277 -6.929449 -5.193492 0.133681 -4.359308 1.523301 -4.879268 18.039546 0.000000 0.000000 0.000000 6.118750 0.352910 -5.889963 -3.439102 1.518889 -4.849289 -5.127135 3.733778 1.261603 3.928024 -1.847483 -8.611089 0.000000 0.000000 0.000000 -18.520525 1.901628 -3.536350 -53.688736 -7.543181 -2.570712 -5.785840 -11.062958 0.901557 0.000000 0.000000 0.000000 14.132448 -9.368958 -5.489749 63.383766 0.604538 -5.242993 9.592607 19.096184 2.131718 0.000000 0.000000 0.000000 
-0.000398 0.943147 -0.000750 0.332942 -3.486237 8.830119 5.005744 -0.358341 -4.694027 -0.573988 0.203703 -4.732738 0.792905 6.864601 17.765833 0.000000 0.000000 0.000000 -4.390779 0.647755 -6.783934 -5.255453 0.131653 -4.449012 1.438673 -5.033875 18.213585 0.000000 0.000000 0.000000 6.039508 0.341301 -5.802928 -3.341875 1.476325 -5.142863 -4.958436 3.689085 1.389741 4.096376 -1.960821 -8.619145 0.000000 0.000000 0.000000 -18.477261 1.974362 -3.570521 -53.885089 -7.539598 -2.598363 -5.660160 -10.682337 0.859447 0.000000 0.000000 0.000000 14.254682 -9.372477 -5.504584 63.245224 0.783588 -5.149274 9.313769 18.668575 2.037649 0.000000 0.000000 0.000000 
